<?xml version="1.0" encoding="UTF-8" standalone="no"?>
<!DOCTYPE svg PUBLIC "-//W3C//DTD SVG 1.1//EN" "http://www.w3.org/Graphics/SVG/1.1/DTD/svg11.dtd">
<svg width="100%" height="100%" viewBox="0 0 250 41" version="1.1" xmlns="http://www.w3.org/2000/svg" xmlns:xlink="http://www.w3.org/1999/xlink" xml:space="preserve" xmlns:serif="http://www.serif.com/" style="fill-rule:evenodd;clip-rule:evenodd;stroke-linejoin:round;stroke-miterlimit:1.41421;">
    <g transform="matrix(0.293996,0,0,0.293996,-18.5289,-53.1339)">
        <g transform="matrix(1.14463,0,0,1.14463,-42.2745,67.0684)">
            <path d="M122.689,220.335C122.681,220.335 122.674,220.335 122.666,220.335C121.02,220.324 119.694,218.979 119.705,217.333L120.006,206.334C120.056,203.077 118.026,200.396 113.016,200.396C101.406,200.396 91.994,190.984 91.994,179.374L91.994,120.32C91.994,108.711 101.406,99.3 113.016,99.3L184.547,99.3C196.156,99.3 205.568,108.711 205.568,120.32L205.568,179.4C205.568,191.009 196.156,200.42 184.547,200.42L147.441,200.42C147.44,200.42 147.438,200.42 147.437,200.42C145.666,200.42 143.962,201.102 142.68,202.325L124.716,219.538C124.165,220.05 123.44,220.335 122.689,220.335ZM143.562,125.13L143.562,125.88C143.562,126.745 143.778,127.438 144.21,127.961C144.643,128.484 145.04,128.859 145.404,129.087C145.586,129.223 145.734,129.359 145.848,129.496C145.961,129.632 146.041,129.883 146.086,130.247L146.086,171.042C146.041,171.542 145.813,171.906 145.404,172.133C145.04,172.36 144.643,172.736 144.21,173.259C143.778,173.782 143.562,174.475 143.562,175.339L143.562,176.158L154,176.158L154,175.339C154,174.475 153.784,173.793 153.352,173.293C152.92,172.793 152.522,172.406 152.158,172.133C151.931,171.997 151.76,171.872 151.646,171.758C151.533,171.644 151.476,171.36 151.476,170.905L151.476,130.247C151.522,129.883 151.601,129.632 151.715,129.496C151.828,129.359 151.977,129.223 152.158,129.087C152.522,128.859 152.92,128.484 153.352,127.961C153.784,127.438 154,126.745 154,125.88L154,125.13L153.795,125.13L143.767,125.13L143.562,125.13Z" style="fill:rgb(9,63,74);fill-rule:nonzero;"/>
        </g>
        <g transform="matrix(1.14463,0,0,1.14463,-42.2745,67.0684)">
            <path d="M154,176.158L143.562,176.158L143.562,175.339C143.562,174.475 143.778,173.782 144.21,173.259C144.643,172.736 145.04,172.36 145.404,172.133C145.813,171.906 146.041,171.542 146.086,171.042L146.086,130.247C146.041,129.883 145.961,129.632 145.848,129.496C145.734,129.359 145.586,129.223 145.404,129.087C145.04,128.859 144.643,128.484 144.21,127.961C143.778,127.438 143.562,126.745 143.562,125.88L143.562,125.13L154,125.13L154,125.88C154,126.745 153.784,127.438 153.352,127.961C152.92,128.484 152.522,128.859 152.158,129.087C151.977,129.223 151.828,129.359 151.715,129.496C151.601,129.632 151.522,129.883 151.476,130.247L151.476,170.905C151.476,171.36 151.533,171.644 151.646,171.758C151.76,171.872 151.931,171.997 152.158,172.133C152.522,172.406 152.92,172.793 153.352,173.293C153.784,173.793 154,174.475 154,175.339L154,176.158Z" style="fill:white;fill-rule:nonzero;"/>
        </g>
        <g transform="matrix(1,0,0,1,-85.8376,48.3516)">
            <text x="306.554px" y="202.083px" style="font-family:'BrandonGrotesque-Bold', 'Brandon Grotesque', sans-serif;font-weight:450;font-size:80px;fill:rgb(9,63,74);">I<tspan x="337.274px 404.794px 450.554px 503.274px 562.234px 620.954px 651.674px 704.394px 781.754px 846.474px 899.194px 948.234px " y="202.083px 202.083px 202.083px 202.083px 202.083px 202.083px 202.083px 202.083px 202.083px 202.083px 202.083px 202.083px ">NTERVIEWDESK</tspan></text>
        </g>
        <g transform="matrix(1,0,0,1,-22.8201,103.779)">
            <text x="306.554px" y="202.083px" style="font-family:'Georgia', serif;font-size:35px;fill:rgb(9,63,74);">O<tspan x="335.084px 358.247px 373.823px 402.524px 421.928px 455.243px 475.365px 498.529px 521.111px 532.039px 548.161px 571.325px 585.892px 605.296px 622.12px 641.985px 654.724px 674.128px 702.419px 721.823px 738.646px 749.573px 773.404px 785.903px 806.025px 820.593px 834.459px 855.812px 872.635px " y="202.083px 202.083px 202.083px 202.083px 202.083px 202.083px 202.083px 202.083px 202.083px 202.083px 202.083px 202.083px 202.083px 202.083px 202.083px 202.083px 202.083px 202.083px 202.083px 202.083px 202.083px 202.083px 202.083px 202.083px 202.083px 202.083px 202.083px 202.083px 202.083px ">n-Demand Interviewer Platform</tspan></text>
        </g>
    </g>
</svg>
