<svg id="Layer_1" data-name="Layer 1" xmlns="http://www.w3.org/2000/svg" width="250" height="250" viewBox="0 0 250 250"><defs><style>.cls-1{fill:#8dc750;}.cls-2{fill:#ffcb0b;}.cls-3{fill:#49c8f5;}.cls-4{fill:#0751a0;}</style></defs><title>jubilant-foodworks-logo</title><path class="cls-1" d="M57.07,42.39c13.2-8.47,51.13-7.15,64.64,6.55-7-5.24-41.61-14.28-65.63-5.06"/><path class="cls-1" d="M121.53,48.18c5.07-7.29,43.14-16.36,67-7.58-30.41-6.91-58.22,6.59-67,7.58"/><path class="cls-1" d="M82.06,118.25c-2-5.09-3.84-11-8.63-27.66C67.64,70.34,57,48.15,56.24,44c-2.07,13,8.84,27.63,14.22,47.39,3.8,14,6.4,28.19,11.48,30.3l.14,0h0l.24.06c.32.07.64.13,1,.18a19.58,19.58,0,0,0,5,0c21.81-3.37,52.22-6.08,73,.12,2.66-12.22,24.77-76.26,27.18-81.41-11.92,18.71-24,56.68-28,79.84-17.31-5.71-58.74-5.87-78.43-2.21"/><path class="cls-2" d="M125.31,58.42A7.76,7.76,0,0,1,133,62.75c.36.79,3.75,2,3.61,3.91-.1,1.53-5.05,3.7-7.77,9.56-.24.48-.76.93-.91,4a40.52,40.52,0,0,1-2.23,6.53c-2.86,5.42-2.3,9.74-3.26,11.09-1.65,2.32-3,1.78-3.34,1.29-.7-1-1.84-.9-2.29-1.89a21.16,21.16,0,0,1-.08-2.79c0-.35.06-.72.09-1.08s0-.73,0-1.1c.11-1,.32-2,.43-3,0-.63,0-1.32,0-2,0-.35,0-.69,0-1s0-.57-.09-.84-.13-.48-.19-.71c-.07-.38-.11-.76-.2-1.14a13.32,13.32,0,0,1-.33-1.6,6.13,6.13,0,0,1,.15-1.14c0-.67-.06-1.31-.06-2V77.71a4.86,4.86,0,0,0,0-.77,3.72,3.72,0,0,0-.33-.77c-.17-.36-.22-.77-.36-1.13l-.26-.42a6.71,6.71,0,0,1-.44-.84c-.26-.62-1.16-2.61-1.47-3.68-.38-1.29,1.78-2,3-3.59s1.83-7.66,8.53-8.09"/><path class="cls-3" d="M88.2,54.6c2.8.37,11.32,3.56,14,5.26a12.48,12.48,0,0,1,1.26.77c.78.6,1.57,1.21,2.32,1.86l1.31,1.29c.42.38.94.64,1.38,1l.42.46a14.43,14.43,0,0,1,1.19,1.29,10.59,10.59,0,0,1,.61,1.08l.4.6c.14.2.2.44.34.65s.29.43.44.66l.35.64c.16.23.32.46.49.68s.26.56.39.85a6.88,6.88,0,0,1,.44.66c.17.37.27.76.41,1.16s.26.5.37.75.23.77.35,1.15l.26.65c.12.39.17.81.27,1.2.06.2.12.4.17.61s.1.51.14.76.24.78.34,1.18.09.66.14,1,.24.67.33,1,.06.49.1.73c.07.42.21.81.28,1.2s.12.65.17,1,.2.69.24,1.08a12,12,0,0,1,0,1.47c0,.39-.29,3.69-.47,5,0,0-.11,2.57-.12,3.48a2.45,2.45,0,0,0,.27,1.85c0,.05.26-.08.31,0,.69.57,1.77,1,2.12,1.62a.83.83,0,0,1,.09.16c.23.76-.83,2.76-1.24,3.29-1.08,1.38-3.21,2.87-7.3,3.94-7.77,3.46-10.52,3.11-11.07,3-6.71-1.84-10.54-8.77-11.8-10.37.47.6-1.74-1-1.66-3.81s2.32-4.36,3-4.88c1.67-2.59-4.49-3.32-11.09-10.65-1.71-1.9-2.4-6.12,3.48-7.8.48-1.49-9.45-4.22-12-11.38C67.48,54.9,72,51.29,88.2,54.6"/><path class="cls-1" d="M178.39,45.29c1.06,2-2.62,7.86-16.06,22.41.07-.1-4.23,5.73-5.45,7.54S155.74,80.3,153,84.9c2.12-3.55-2,2.85-13.58,13.61-2.32,2.14-20.69,22.23-19.32,9.13.07-.63,1-1.61,1.35-3.29s-1.35-2.64.7-6.13c1-1.12,1.1-4.6,1.47-6.23,1.16-5.1,4.14-9.55,7-13.93a32.45,32.45,0,0,1,3-3.78c11.45-12.53,13.81-12.14,24.64-23s17.43-10.8,20-6"/><path class="cls-4" d="M78.32,62.08c2.75-3.32,9-4.13,15.47-3.63,7.26.57,14,3.5,18,7.76,7.88,8.34,7.36,21.05,6,29.82,5.37-9.68,1.68-19.94,11.82-27.21.58-.41,1.9.91,1.5,1.33-5.74,6.22-5.34,18.95-12.41,28.44-.15.21-1.76-.45-1.43-1-.32.86-1,.36-1.69,0a1.54,1.54,0,0,1-.84-1.72c1.66-11.49-.16-22.6-9.85-30.11-3-2.31-10-4.46-16.86-4.06-2.6.14-4.81.56-6,1.81-2.36,2.37,11.15,6.28,11.26,9.82.1,3.19-4.9,3.64-5.23,4.75-.45,1.55,12.25,4.72,12.12,8.07C100,89,95.75,89.77,95.64,91c-.25,2.57,4.61,3.4,7.62,11.44.07.2,0,1.29-.5,1.5s-1.82-.87-2.39-1.58c-5.11-6.45-9.31-6.11-9.16-8.89.17-3.31,4.09-4.92,5.48-6.59-2.28-3.65-13.43-5.36-12.38-9.61.82-3.31,4.55-3.14,4.77-4.42.16-1-3-2.25-6-4-3.43-1.94-6.72-4.41-4.75-6.8"/><path class="cls-4" d="M127.47,77.29c1.33-2,7.49-9,19-17.34,4.2-3.06,16.53-12.61,22.52-9.12,3.57,2.08-10.12,13.49-11.89,15.34-1,1.08-2.23,5.83-4.7,9.2-2.85,3.94-20.89,24.12-28.08,29.31-.78.55-1.73,1.16-2.13.9a2.55,2.55,0,0,1-.78-.65c-.4-.44.58-1.89,1.13-2.67,1.93-2.84,23.2-22.49,24-25.43s2.78-7.68,13.3-16.73c4.51-3.87,7.88-6.9,6.38-7.66-.69-.35-2.79,0-5.67,1.65-5.17,3-12.23,8.6-13.81,9.66-2.44,1.66-12.4,11.63-15.35,14.17-1.53,1.3-2.84,2-3.58,1.89-.2,0-.2-.33-.34-.43s-.52,0-.59-.25a3.27,3.27,0,0,1,.62-1.84"/><path class="cls-4" d="M125,65.68c2.21,0,1.9,2.81-.22,2.81-1.69,0-1.51-2.81.22-2.81"/><path class="cls-4" d="M120.21,68.41c.17-.61,1.68-4.06,4.44-4s3,1.08,3.5,1.76a6.84,6.84,0,0,0,4.16,2.1c.76,0,.6-.76.25-1.41a5.41,5.41,0,0,0-1.35-1.65c-.36-.29-.58-3.59-4.75-3.86-2.36-.15-6.29,1.45-6.73,6.79,0,.53.08,1,.48.23"/><path class="cls-4" d="M211,134l-.29,0-5,25.08L194.5,133.83c-1.05.13-2.14.21-3.19.28s-2.12.09-3.17.09-2.06,0-3-.09-1.95-.15-2.91-.28l-.29,1.42c1.1.15,1.75.46,2,.95a5.18,5.18,0,0,1,0,2.94l-4.09,20.05-2,10-.78,0v0a3.1,3.1,0,0,1-.44,0,2.69,2.69,0,0,1-1.9-.73,6.54,6.54,0,0,1-1.09-2.88l-5.26-27.48-.3-1.83c-.1-.68-.2-1.5-.29-2.43-1.13.13-2.2.21-3.25.28s-2,.09-2.94.09-2.06,0-3-.09-2-.15-2.91-.28l-.3,1.33a3.69,3.69,0,0,1,1.74.39.85.85,0,0,1,.37,1,2.53,2.53,0,0,1-.25.69,9.11,9.11,0,0,1-.58,1s-16.68,25.82-16.43,25.41c0,0,3.05.08,4.89.08s1.17-.17,1.17-.17l3.92-5.92,13.67.08,1.9,12.8a.93.93,0,0,1,.24,0c2.19-.13,4.34-.16,6.53-.16s4.68.05,7.15,0a45.81,45.81,0,0,1,6.79.19l.25-1.33c-1.51-.09-2.47-.44-2.9-1s-.43-1.76-.09-3.47l4.89-23.94,13.64,29.75h6.16l6.42-31.67s0,0,0,0h11.43l-6.34,31.61h.2a49.3,49.3,0,0,1,7.49-.19c1.31.11,2.73.09,4.27.26l.29-1.25c-1.61-.08-2.64-.43-3.08-1.09s-.44-2.14,0-4.42l5.09-24.92,4.49,0c2.16,0,3.61.44,4.39,1.29s1.09,2.46,1,4.79h1.22c.08-1.64.22-3.35.42-5.15s.47-3.73.83-5.85h-1c-11.33,0-23.16,0-34.49,0m-55.79,20.2a8.82,8.82,0,0,0-5.12,3.19l11.23-17.89,2,14.44s-5.93-.25-8.15.26m-4.42,8.28a3.81,3.81,0,0,1-2,2.61c-1.59.72-2.64.48-4.57.48H132.46L138,138.47a4.27,4.27,0,0,1,1.23-2.47,4.12,4.12,0,0,1,2.65-.75l.28-1.42c-1.48.16-2.84.27-4.07.36s-2.31.11-3.26.11-2.21,0-3.31-.11c-.26,0-.49-.05-.74-.06l-6.35,31.78a4.21,4.21,0,0,1-1.12,2.36,3.85,3.85,0,0,1-2.37.88l-.3,1.42H149.7a43.85,43.85,0,0,1,2.28-7.95Zm-31.56-28.25c-1.16.07-2.29.11-3.37.11s-2.21,0-3.33-.11c-.23,0-.49-.05-.73-.06l-6.39,31.94a4.28,4.28,0,0,1-1.12,2.38,3.93,3.93,0,0,1-2.38.88l-.28,1.41c1.39-.17,2.66-.31,3.78-.42s2.17-.14,3.13-.14,2,0,3,.14,2.33.25,3.68.42l.28-1.41a2.66,2.66,0,0,1-2-.88,3.18,3.18,0,0,1-.15-2.38L119,138.48a4.32,4.32,0,0,1,1.13-2.35,3.82,3.82,0,0,1,2.38-.88l.29-1.42c-1.22.16-2.41.27-3.56.36m-18.29,8.15c.57-2.8-.14-4.89-2.13-6.31s-5.2-2.1-9.71-2.1H75l-6.43,31.95a4.39,4.39,0,0,1-1.14,2.39,3.85,3.85,0,0,1-2.37.88l-.29,1.42H81.28c5.26,0,9.46-.91,12.63-2.7a11.28,11.28,0,0,0,5.77-7.81q.79-3.92-1.4-6.3t-7-2.79a14,14,0,0,0,6.51-3.12,9.67,9.67,0,0,0,3.17-5.51m-9.68,17.28a6.87,6.87,0,0,1-3,4.51,10.84,10.84,0,0,1-6.2,1.59h-5.5L79,153.86h5.15c2.7,0,4.67.49,5.88,1.48a4,4,0,0,1,1.25,4.28m.85-15.79a6.21,6.21,0,0,1-2.79,4.11,10.53,10.53,0,0,1-5.79,1.46H79.88l2.2-10.83h4c2.35,0,4,.44,5.06,1.34a3.84,3.84,0,0,1,1,3.92m-25-9.7-.61.06c-1.16.07-2.3.11-3.4.11s-2.22,0-3.36-.11-2.26-.2-3.41-.36L56,135.24a2.54,2.54,0,0,1,2,.87,3.15,3.15,0,0,1,.17,2.36l-3.5,17.18q-1.34,6.56-3.33,8.65c-1.32,1.39-3.32,2.09-6,2.09s-4.41-.7-5.17-2.1-.71-4.28.18-8.64l4.35-21.52-.61.06c-1.16.07-2.29.11-3.37.11s-2.23,0-3.33-.11-2.25-.2-3.39-.36l-.29,1.42a2.57,2.57,0,0,1,2,.88,3.17,3.17,0,0,1,.18,2.34l-3.45,16.85c-1.24,6.1-1,10.31.83,12.66s5.47,3.54,11,3.54,9.7-1.18,12.45-3.54,4.75-6.56,6-12.66ZM26.66,134c-1.16.11-2.28.17-3.38.17-.93,0-2-.06-3.17-.17l-.7-.07L11,174.8c-1.39,6.8-2.57,11.47-3.54,13.36a7.62,7.62,0,0,1-4,3.85l.43,2.9a14.85,14.85,0,0,0,9.89-6.18c2.25-3.28,4.25-9.48,6.22-19.14l6.05-29.66a7.36,7.36,0,0,1,1.31-3.25,3.49,3.49,0,0,1,2.44-1.2l.39-2c-1.22.21-2.41.39-3.57.49"/><path class="cls-4" d="M25.55,183.14l-.24,1.17a2,2,0,0,1,1.61.66,2.36,2.36,0,0,1,.14,1.87l-4.48,21.91a3.42,3.42,0,0,1-.9,1.89,3,3,0,0,1-1.9.69l-.23,1.15c1-.13,1.93-.24,2.84-.31s1.81-.13,2.68-.13,1.6.05,2.55.13,2,.18,3.14.31l.24-1.15a2.28,2.28,0,0,1-1.87-.61,2.4,2.4,0,0,1-.18-2l1.8-8.84h5.16a5.79,5.79,0,0,1,1.68.19,1.19,1.19,0,0,1,.79.72,3,3,0,0,1,0,1.46h.89c.12-.85.25-1.63.36-2.34s.22-1.37.34-1.94.25-1.17.44-1.9.39-1.54.62-2.42h-.85a3.64,3.64,0,0,1-.66,1.44,2,2,0,0,1-1.07.7,6.79,6.79,0,0,1-1.77.17H31.56l1.82-8.93h8.19a14.33,14.33,0,0,1,2,.12,2.73,2.73,0,0,1,1.25.47,1.77,1.77,0,0,1,.57,1,6.08,6.08,0,0,1,0,1.76h1c.12-1.15.29-2.35.49-3.57s.43-2.46.7-3.74m-3.76,17.37a13.78,13.78,0,0,0-.28,3.68,10.86,10.86,0,0,0,.68,3.25,9.22,9.22,0,0,0,1.6,2.69,8.1,8.1,0,0,0,2.94,2.17,9.92,9.92,0,0,0,3.84.71,13.94,13.94,0,0,0,4.89-.87,13.58,13.58,0,0,0,4.16-2.43A14.16,14.16,0,0,0,64.78,206a14.81,14.81,0,0,0,1.8-4.7,13,13,0,0,0,.28-3.63,11,11,0,0,0-.69-3.23,8.84,8.84,0,0,0-1.6-2.64,8.16,8.16,0,0,0-3-2.15,9.84,9.84,0,0,0-3.81-.7,14,14,0,0,0-4.86.84,14,14,0,0,0-7.28,6.07,14.4,14.4,0,0,0-1.81,4.65m12.77-8.36a4.43,4.43,0,0,1,2.5.72A5,5,0,0,1,60.77,195a9.29,9.29,0,0,1,.7,3.25,17.29,17.29,0,0,1-.37,4.26,11.63,11.63,0,0,1-1.52,3.92,7.58,7.58,0,0,1-2.51,2.5,6.15,6.15,0,0,1-3.21.89,4.49,4.49,0,0,1-2.5-.73,5,5,0,0,1-1.69-2.11,9.09,9.09,0,0,1-.72-3.31,17.59,17.59,0,0,1,.38-4.34,11.38,11.38,0,0,1,1.5-3.87A7.13,7.13,0,0,1,53.32,193a6.46,6.46,0,0,1,3.28-.84m12.55,8.36a14.21,14.21,0,0,0-.28,3.68,10.56,10.56,0,0,0,.69,3.25,9.17,9.17,0,0,0,1.58,2.69,8.22,8.22,0,0,0,3,2.17,10,10,0,0,0,3.84.71,14,14,0,0,0,4.9-.87A13.65,13.65,0,0,0,87,209.71,14.16,14.16,0,0,0,90.1,206a14.81,14.81,0,0,0,1.8-4.7,13,13,0,0,0,.28-3.63,10.73,10.73,0,0,0-.69-3.23,8.84,8.84,0,0,0-1.6-2.64,8.16,8.16,0,0,0-3-2.15,9.87,9.87,0,0,0-3.81-.7,14,14,0,0,0-4.86.84A14.07,14.07,0,0,0,71,195.86a14.4,14.4,0,0,0-1.81,4.65m12.77-8.36a4.4,4.4,0,0,1,2.5.72A4.87,4.87,0,0,1,86.08,195a8.85,8.85,0,0,1,.72,3.25,17.84,17.84,0,0,1-.38,4.26,12.06,12.06,0,0,1-1.51,3.92,7.61,7.61,0,0,1-2.52,2.5,6.15,6.15,0,0,1-3.2.89,4.55,4.55,0,0,1-2.52-.73A5,5,0,0,1,75,206.94a8.88,8.88,0,0,1-.73-3.31,17.12,17.12,0,0,1,.38-4.34,11.38,11.38,0,0,1,1.5-3.87A7.21,7.21,0,0,1,78.64,193a6.48,6.48,0,0,1,3.28-.84m14.4-2.89-.19.91a1.59,1.59,0,0,1,1.28.54,1.89,1.89,0,0,1,.11,1.47L94,209.43a2.61,2.61,0,0,1-.72,1.47,2.32,2.32,0,0,1-1.49.53l-.19.92h7.92a23.12,23.12,0,0,0,8.43-1.39,14,14,0,0,0,5.76-4,14.12,14.12,0,0,0,3-6.37,11.73,11.73,0,0,0,.14-4.35,8.27,8.27,0,0,0-1.41-3.47,7.3,7.3,0,0,0-2.78-2.31,12.1,12.1,0,0,0-3.44-.94,33.06,33.06,0,0,0-4.58-.25Zm6.21,3,.62,0h.61a10.07,10.07,0,0,1,4.83,1,5.25,5.25,0,0,1,2.51,3,8.89,8.89,0,0,1,.1,4.71,10.07,10.07,0,0,1-3.59,6.23,11.68,11.68,0,0,1-7.3,2.13h-.64c-.2,0-.42,0-.62,0Zm15.9-9.24-.22,1.12a2.81,2.81,0,0,1,1.45.41,1.76,1.76,0,0,1,.67,1,8.91,8.91,0,0,1,.25,1.75l2.09,25h5.39L136,196.21l1,16.14h5.22l13.11-26a5.57,5.57,0,0,1,.77-1.19,2.52,2.52,0,0,1,.93-.7,3.43,3.43,0,0,1,1.28-.25l.23-1.12c-1,.09-1.84.16-2.61.19s-1.42,0-2,0-1.2,0-1.95,0-1.56-.1-2.45-.19l-.23,1.12a3.22,3.22,0,0,1,1.62.51,1.06,1.06,0,0,1,.27,1.14c-.06.23-.13.5-.25.83s-.28.73-.48,1.18l-8,17-.93-16.95a5.44,5.44,0,0,1,0-.8c0-.27.08-.56.14-.85a2.68,2.68,0,0,1,.47-1.13,2.15,2.15,0,0,1,1-.63,6.86,6.86,0,0,1,1.61-.29l.23-1.12c-1,.12-2.07.2-3.14.25s-2.13.07-3.2.07-1.86,0-2.8-.07-1.88-.13-2.84-.25l-.23,1.12a3.18,3.18,0,0,1,1.93.62,2.31,2.31,0,0,1,.68,1.66l.34,4L128.32,205,127,187.25a8.17,8.17,0,0,1,0-1c0-.33.07-.64.12-.94a1.27,1.27,0,0,1,.62-.79,3,3,0,0,1,1.36-.36l.22-1.12c-1,.12-1.94.2-2.81.25s-1.72.07-2.5.07-1.74,0-2.66-.07-1.89-.12-2.89-.25m34.69,17.46a14.64,14.64,0,0,0-.27,3.68,10.86,10.86,0,0,0,.68,3.25,9.2,9.2,0,0,0,1.59,2.69,8.14,8.14,0,0,0,2.95,2.17,9.9,9.9,0,0,0,3.83.71,14,14,0,0,0,4.9-.87,13.7,13.7,0,0,0,4.16-2.43,14.36,14.36,0,0,0,3.12-3.71,15,15,0,0,0,1.8-4.7,13.4,13.4,0,0,0,.27-3.63,10.43,10.43,0,0,0-.69-3.23,8.61,8.61,0,0,0-1.59-2.64,8.33,8.33,0,0,0-3-2.15,9.87,9.87,0,0,0-3.81-.7,14.08,14.08,0,0,0-4.87.84,14.18,14.18,0,0,0-7.28,6.07,14.88,14.88,0,0,0-1.81,4.65m12.78-8.36a4.43,4.43,0,0,1,2.5.72,4.87,4.87,0,0,1,1.66,2.09,8.85,8.85,0,0,1,.71,3.25,16.41,16.41,0,0,1-.38,4.26,11.84,11.84,0,0,1-1.51,3.92,7.58,7.58,0,0,1-2.51,2.5,6.18,6.18,0,0,1-3.21.89,4.54,4.54,0,0,1-2.51-.73,5,5,0,0,1-1.68-2.11,9.09,9.09,0,0,1-.72-3.31,17.59,17.59,0,0,1,.38-4.34,11.37,11.37,0,0,1,1.49-3.87,7.24,7.24,0,0,1,2.5-2.43,6.46,6.46,0,0,1,3.28-.84m15.37-2.89-.2.91a1.61,1.61,0,0,1,1.29.54,1.89,1.89,0,0,1,.11,1.47l-3.55,17.32a2.77,2.77,0,0,1-.71,1.5,2.43,2.43,0,0,1-1.5.55l-.19.91c.77-.11,1.53-.19,2.26-.25s1.43-.1,2.11-.1,1.36,0,2.06.1,1.44.14,2.19.25l.19-.91a1.55,1.55,0,0,1-1.27-.55,1.9,1.9,0,0,1-.1-1.5l3.5-17.14h2.36a6.27,6.27,0,0,1,2.67.49,2.65,2.65,0,0,1,1.41,1.38,3.48,3.48,0,0,1,.12,2.15,5.25,5.25,0,0,1-1.28,2.54,6.37,6.37,0,0,1-2.45,1.62,8.83,8.83,0,0,1-3.25.56h-.39a.91.91,0,0,0-.41.1.39.39,0,0,0-.18.26,2.05,2.05,0,0,0,.35,1.07c.28.51.66,1.21,1.15,2.09s1,2,1.57,3.26a48.62,48.62,0,0,1,1.75,4.58l2.13-.22c.61-.06,1.14-.1,1.56-.1s.72,0,1.3.09,1.31.12,2.19.23l.18-.91h-.17a1.85,1.85,0,0,1-1.23-.43,4.28,4.28,0,0,1-1-1.21c-.3-.52-.61-1.18-.95-1.94s-.7-1.64-1.15-2.61-1-2.06-1.61-3.23a12,12,0,0,0,3.54-1.4,8.84,8.84,0,0,0,2.49-2.24,7.5,7.5,0,0,0,1.29-2.88,5.32,5.32,0,0,0-.3-3.66,4.54,4.54,0,0,0-2.75-2,16.64,16.64,0,0,0-5.2-.64Zm20,23.2c.78-.11,1.53-.19,2.26-.25s1.43-.1,2.11-.1,1.36,0,2.07.1,1.43.14,2.18.25l.19-.91a1.55,1.55,0,0,1-1.27-.55,1.93,1.93,0,0,1-.11-1.5l3.57-17.38a2.61,2.61,0,0,1,.71-1.51,2.43,2.43,0,0,1,1.49-.53l.19-.89a32.34,32.34,0,0,1-4.4.32q-1.06,0-2.1-.09c-.7,0-1.41-.13-2.13-.23l-.18.89a1.58,1.58,0,0,1,1.27.53,2,2,0,0,1,.11,1.51L203.7,209.5A2.65,2.65,0,0,1,203,211a2.38,2.38,0,0,1-1.49.55Zm15.14,0c.69-.11,1.3-.19,1.85-.23a13.47,13.47,0,0,1,1.42-.09c.65,0,1.28,0,1.9.1s1.24.13,1.86.22l.18-.91a2.84,2.84,0,0,1-1-.19,1.85,1.85,0,0,1-.74-.51,3.31,3.31,0,0,1-.55-.93c-1-2.15-1.87-4.12-2.71-5.89a48.35,48.35,0,0,0-2.53-4.65l7.69-7.83a5.09,5.09,0,0,1,1.46-1.07,4.17,4.17,0,0,1,1.52-.4l.19-.89c-.94.09-1.77.16-2.47.21s-1.3.07-1.79.07-1.14,0-1.78-.07-1.34-.12-2.06-.21l-.19.89a1.68,1.68,0,0,1,.83.26.48.48,0,0,1,.17.54,2.1,2.1,0,0,1-.23.61,2.48,2.48,0,0,1-.47.59l-8.3,8.43a30.38,30.38,0,0,1,2.51,4.49c1,2,2,4.48,3.28,7.46m30.06-22.13a13.7,13.7,0,0,0-3.24-1,21.14,21.14,0,0,0-4-.35,15.86,15.86,0,0,0-4.09.5,11.84,11.84,0,0,0-3.24,1.44,8.41,8.41,0,0,0-2.27,2.17,7.29,7.29,0,0,0-1.2,2.75,5.41,5.41,0,0,0,0,2.3,3.75,3.75,0,0,0,1,1.79,6.91,6.91,0,0,0,1.92,1.43,20.69,20.69,0,0,0,2.85,1.21c.92.3,1.73.59,2.41.85a8.61,8.61,0,0,1,1.71.79,2.23,2.23,0,0,1,.92,1,2.64,2.64,0,0,1,.07,1.48,3.32,3.32,0,0,1-1,1.68,5.32,5.32,0,0,1-1.95,1.16,9,9,0,0,1-2.78.43,7.54,7.54,0,0,1-3.33-.7,4.76,4.76,0,0,1-2.09-2,5.72,5.72,0,0,1-.62-3.11h-.7c-.17,1-.3,1.78-.41,2.39s-.18,1-.24,1.26l-.33,1.62c-.13.58-.27,1.24-.43,1.94a17.8,17.8,0,0,0,3.66,1.16,20.86,20.86,0,0,0,4.06.4,16.75,16.75,0,0,0,4.4-.57,12.55,12.55,0,0,0,3.49-1.57,8.75,8.75,0,0,0,2.44-2.27,6.67,6.67,0,0,0,1.24-2.73,4.85,4.85,0,0,0-.18-2.89,5.2,5.2,0,0,0-1.91-2.11,15.76,15.76,0,0,0-3.57-1.62l-2.54-.87a10.25,10.25,0,0,1-1.79-.8,2.34,2.34,0,0,1-1-1,2.17,2.17,0,0,1-.1-1.39,3.53,3.53,0,0,1,.87-1.72,4.19,4.19,0,0,1,1.69-1.13,6.8,6.8,0,0,1,2.41-.4,7.81,7.81,0,0,1,3.12.62,4.63,4.63,0,0,1,2.83,4.34h.76c.15-1.13.32-2.24.5-3.32s.37-2.14.59-3.17"/></svg>